<svg xmlns="http://www.w3.org/2000/svg" viewBox="0 0 200 200" width="200" height="200">
  <!-- Background Circle -->
  <circle cx="100" cy="100" r="90" fill="#ffffff" stroke="#00bcd4" stroke-width="6"/>
  
  <!-- W Letter -->
  <path d="M40 70 L55 130 L70 70 L85 130 L100 70 L115 130 L130 70 L145 130 L160 70" 
        fill="none" stroke="#00bcd4" stroke-width="8" stroke-linecap="round" stroke-linejoin="round"/>
  
  <!-- Gear Icon -->
  <circle cx="100" cy="100" r="25" fill="#26a69a"/>
  <circle cx="100" cy="100" r="15" fill="#ffffff"/>
  
  <!-- Gear Teeth -->
  <rect x="97" y="70" width="6" height="15" fill="#26a69a"/>
  <rect x="97" y="115" width="6" height="15" fill="#26a69a"/>
  <rect x="70" y="97" width="15" height="6" fill="#26a69a"/>
  <rect x="115" y="97" width="15" height="6" fill="#26a69a"/>
  
  <!-- Diagonal Teeth -->
  <rect x="80" y="80" width="12" height="6" fill="#26a69a" transform="rotate(45 80 80)"/>
  <rect x="120" y="80" width="12" height="6" fill="#26a69a" transform="rotate(-45 120 80)"/>
  <rect x="80" y="120" width="12" height="6" fill="#26a69a" transform="rotate(-45 80 120)"/>
  <rect x="120" y="120" width="12" height="6" fill="#26a69a" transform="rotate(45 120 120)"/>
</svg>
